<svg id="svg" version="1.1" xmlns="http://www.w3.org/2000/svg" xmlns:xlink="http://www.w3.org/1999/xlink" width="400" height="400" viewBox="0, 0, 400,400"><g id="svgg">
<path id="path0" d="M143.652 24.217 C 137.242 29.611,128.304 45.077,126.052 54.672 C 123.965 63.559,125.290 67.921,132.046 74.416 C 134.145 76.434,135.600 78.153,135.600 78.616 C 135.600 79.913,124.247 90.077,118.400 94.014 C 110.059 99.631,100.473 108.307,97.307 113.106 C 93.884 118.292,92.413 124.370,92.405 133.355 C 92.386 155.423,87.130 181.622,80.701 191.700 C 78.559 195.057,77.424 197.702,76.739 200.935 C 76.498 202.071,75.764 204.350,75.108 206.000 C 73.465 210.131,73.143 213.729,72.928 230.374 C 72.732 245.461,72.905 247.638,74.819 254.220 C 78.224 265.928,78.018 269.581,73.800 272.279 C 70.668 274.282,70.285 274.725,70.547 276.035 C 70.782 277.208,76.731 286.406,79.839 290.400 C 82.562 293.900,83.564 297.326,83.586 303.216 C 83.610 309.632,84.681 312.554,89.299 318.800 C 93.824 324.920,96.580 327.184,99.523 327.196 C 102.251 327.208,104.209 328.154,106.716 330.672 C 110.583 334.558,110.814 334.333,111.088 326.400 C 111.387 317.734,113.373 311.549,116.845 308.472 C 118.996 306.564,119.276 305.861,120.824 298.469 L 121.689 294.337 120.356 291.869 C 118.261 287.991,118.409 284.503,120.920 278.524 C 123.052 273.449,123.180 272.356,121.873 270.393 C 121.363 269.627,120.250 267.740,119.399 266.200 C 118.549 264.660,116.549 262.030,114.955 260.355 C 109.417 254.537,110.722 246.144,118.764 235.850 C 122.307 231.315,123.660 229.382,124.679 227.400 C 125.245 226.300,126.142 224.881,126.673 224.247 C 129.716 220.610,131.563 210.763,131.013 201.103 C 130.496 192.012,130.792 190.252,133.875 184.091 C 138.020 175.807,139.054 175.813,143.787 184.153 C 147.432 190.575,148.776 194.285,149.989 201.269 C 151.484 209.875,151.124 211.947,147.887 213.379 C 143.573 215.286,139.239 221.953,135.588 232.297 C 133.988 236.832,134.033 238.661,135.839 242.411 C 138.053 247.010,138.129 251.821,136.138 261.427 C 135.378 265.095,134.601 266.218,131.313 268.400 C 125.020 272.575,120.114 285.677,123.232 289.980 C 125.093 292.550,125.091 293.504,123.202 301.467 C 121.305 309.468,121.127 309.861,118.621 311.586 C 117.011 312.693,116.730 313.133,115.859 315.909 C 113.358 323.882,113.554 325.192,117.726 328.341 C 124.586 333.518,125.429 342.975,119.613 349.501 C 117.127 352.290,117.023 353.392,118.987 356.153 C 121.417 359.571,121.782 361.038,121.161 364.884 C 120.867 366.708,120.579 370.090,120.522 372.400 C 120.464 374.710,120.395 377.017,120.368 377.526 C 120.248 379.784,123.570 379.997,158.900 379.999 C 180.807 380.000,181.214 379.986,182.015 379.185 C 182.973 378.227,182.962 368.376,181.987 354.200 C 181.111 341.478,181.864 323.716,183.548 317.369 C 184.422 314.078,185.200 307.282,185.200 302.949 C 185.200 295.448,186.021 292.695,189.779 287.600 C 191.158 285.730,193.404 282.525,194.769 280.478 C 198.485 274.903,198.848 274.910,203.506 280.640 C 209.247 287.701,210.390 289.385,212.981 294.600 C 217.147 302.987,217.458 305.357,215.377 312.849 L 214.641 315.498 216.110 320.049 C 218.538 327.569,218.608 328.092,219.578 346.000 C 220.634 365.468,223.776 376.002,229.244 378.398 C 233.955 380.462,265.467 380.491,268.469 378.434 C 272.358 375.769,274.466 365.833,272.361 360.090 C 269.485 352.245,268.685 347.263,268.871 338.369 L 269.000 332.200 271.128 328.538 C 275.166 321.588,276.610 311.442,275.218 299.800 C 275.008 298.040,274.634 294.800,274.388 292.600 C 273.468 284.391,269.552 265.447,267.616 259.837 C 265.968 255.064,266.523 253.454,271.644 248.143 C 274.980 244.684,274.972 245.430,271.744 238.611 C 260.070 213.953,258.230 210.722,254.527 208.384 C 251.172 206.265,250.953 205.651,251.825 200.806 C 253.655 190.636,259.745 181.807,263.567 183.783 C 267.019 185.568,271.997 193.140,271.994 196.600 C 271.993 197.480,272.170 199.910,272.388 202.000 C 272.606 204.090,272.981 207.870,273.221 210.400 C 274.057 219.186,277.602 226.624,286.049 237.310 C 292.605 245.604,294.139 255.947,289.391 259.843 C 284.048 264.227,281.932 270.846,281.332 285.044 C 280.808 297.463,285.533 299.895,291.653 290.356 C 296.811 282.314,300.256 283.362,301.000 293.200 C 301.334 297.610,300.886 298.835,296.856 304.539 C 292.055 311.333,291.308 313.703,293.206 316.117 C 295.692 319.277,299.571 318.512,306.945 313.408 C 308.955 312.016,311.802 310.304,313.271 309.602 C 317.686 307.494,318.508 305.735,322.408 290.063 C 323.704 284.858,325.246 279.250,325.835 277.600 C 326.699 275.183,326.969 273.511,327.226 269.000 C 327.438 265.257,327.824 262.471,328.388 260.600 C 329.835 255.798,330.032 254.430,330.491 246.000 C 332.155 215.394,330.422 204.443,320.954 185.733 C 315.114 174.193,315.102 174.134,317.691 169.849 C 321.312 163.856,318.745 150.688,312.998 145.782 C 309.599 142.879,309.499 142.513,309.194 131.800 C 308.860 120.055,308.602 119.325,301.439 109.854 C 298.638 106.149,297.087 104.526,294.372 102.454 C 292.460 100.994,289.278 98.423,287.303 96.739 C 285.327 95.055,282.201 92.681,280.355 91.463 C 278.510 90.245,275.772 88.202,274.270 86.924 C 272.769 85.646,270.519 83.776,269.270 82.770 C 265.971 80.110,266.022 79.544,269.870 76.148 C 276.006 70.733,277.449 68.623,278.425 63.644 C 280.020 55.508,274.039 41.098,263.683 28.122 C 256.871 19.586,255.982 21.428,259.564 36.652 C 264.110 55.973,254.733 67.435,242.600 57.387 C 236.342 52.205,215.655 37.008,213.645 36.117 C 206.311 32.865,196.674 32.890,189.483 36.179 C 186.349 37.613,177.405 43.710,165.481 52.542 C 152.915 61.850,152.759 61.916,148.747 59.733 C 145.243 57.826,143.349 53.871,142.933 47.600 C 142.697 44.032,142.838 43.016,144.743 34.600 C 147.077 24.285,146.793 21.575,143.652 24.217 M346.800 320.242 C 323.835 322.935,315.381 327.340,324.414 331.907 C 341.889 340.742,398.639 336.427,390.602 326.875 C 386.916 322.495,361.023 318.574,346.800 320.242 M320.976 336.568 C 319.782 337.442,319.622 343.230,320.724 345.721 C 324.337 353.890,364.054 356.833,384.085 350.417 C 390.473 348.370,392.083 346.803,392.333 342.390 C 392.690 336.073,391.964 335.406,386.634 337.148 C 369.832 342.638,341.503 342.545,325.040 336.946 C 321.762 335.831,321.959 335.849,320.976 336.568 M320.569 354.191 C 319.578 355.704,319.892 361.928,321.038 363.471 C 327.333 371.954,372.611 373.593,387.984 365.894 C 391.576 364.095,392.121 363.212,392.295 358.902 C 392.529 353.127,391.682 352.433,386.557 354.202 C 371.272 359.478,343.104 359.567,326.337 354.392 C 321.658 352.948,321.390 352.938,320.569 354.191 M321.477 370.306 C 320.024 370.630,319.430 376.412,320.523 379.587 C 322.921 386.553,354.495 390.399,376.200 386.368 C 389.126 383.967,392.400 381.729,392.400 375.293 C 392.400 370.026,391.764 369.569,386.684 371.186 C 368.851 376.863,342.934 376.667,324.000 370.711 C 323.010 370.400,321.875 370.217,321.477 370.306 M228.000 386.214 C 228.000 386.980,229.328 387.594,230.871 387.540 C 232.063 387.499,232.258 387.428,231.500 387.313 C 230.895 387.222,230.400 386.968,230.400 386.750 C 230.400 386.531,230.224 386.462,230.008 386.595 C 229.793 386.728,229.253 386.642,228.808 386.404 C 228.364 386.167,228.000 386.081,228.000 386.214 " stroke="none" fill="#04cc04" fill-rule="evenodd"></path><path id="path1" d="M143.703 13.464 C 141.702 13.751,134.014 21.673,131.686 25.845 C 131.404 26.351,130.639 27.300,129.986 27.952 C 129.334 28.605,128.800 29.308,128.800 29.514 C 128.800 29.721,128.260 30.569,127.600 31.400 C 126.940 32.231,126.400 33.093,126.400 33.317 C 126.400 33.541,125.932 34.339,125.359 35.089 C 124.097 36.744,121.600 41.547,121.600 42.319 C 121.600 42.626,121.352 43.354,121.049 43.938 C 115.696 54.247,116.341 69.702,122.400 76.335 C 124.443 78.573,123.729 80.404,120.044 82.376 C 119.590 82.620,118.799 83.219,118.287 83.709 C 116.707 85.222,115.209 86.400,114.867 86.400 C 114.687 86.400,114.117 86.850,113.600 87.400 C 113.083 87.950,112.437 88.400,112.164 88.400 C 111.891 88.400,110.895 89.120,109.951 90.000 C 109.008 90.880,108.068 91.600,107.862 91.600 C 107.657 91.600,106.708 92.320,105.754 93.200 C 104.799 94.080,103.853 94.800,103.652 94.800 C 103.451 94.800,102.396 95.655,101.306 96.700 C 100.217 97.745,98.082 99.783,96.563 101.228 C 93.751 103.904,91.600 106.453,91.600 107.111 C 91.600 107.312,91.231 107.810,90.780 108.218 C 89.613 109.274,86.400 116.053,86.400 117.460 C 86.400 118.109,86.230 118.811,86.022 119.020 C 85.273 119.774,84.655 125.960,84.526 134.000 C 84.453 138.510,84.219 142.560,84.005 143.000 C 83.790 143.440,83.412 146.230,83.164 149.200 C 82.527 156.816,82.191 159.658,81.412 164.000 C 81.037 166.090,80.644 168.340,80.538 169.000 C 80.432 169.660,80.193 170.560,80.007 171.000 C 79.821 171.440,79.350 173.150,78.960 174.800 C 78.571 176.450,78.105 177.971,77.926 178.180 C 77.747 178.389,77.600 178.822,77.600 179.143 C 77.600 179.980,73.765 187.674,72.156 190.066 C 71.406 191.180,70.690 192.566,70.565 193.146 C 70.440 193.726,70.190 194.560,70.010 195.000 C 69.829 195.440,69.378 197.060,69.007 198.600 C 68.637 200.140,67.988 202.120,67.565 203.000 C 66.543 205.130,66.023 207.735,65.611 212.800 C 65.423 215.110,65.078 217.810,64.844 218.800 C 64.167 221.671,64.296 243.651,65.008 246.600 C 65.327 247.920,65.590 249.754,65.594 250.676 C 65.597 251.598,65.780 252.464,66.000 252.600 C 66.220 252.736,66.400 253.326,66.400 253.910 C 66.400 254.857,67.062 257.103,68.018 259.400 C 68.201 259.840,68.439 260.830,68.547 261.600 C 68.655 262.370,68.868 263.504,69.022 264.119 C 69.305 265.258,68.474 266.357,67.306 266.387 C 62.641 266.507,59.628 275.469,62.798 279.800 C 63.442 280.680,64.218 281.940,64.522 282.600 C 64.827 283.260,65.374 284.047,65.738 284.349 C 66.102 284.651,66.400 285.115,66.400 285.379 C 66.400 285.644,66.850 286.283,67.400 286.800 C 67.950 287.317,68.400 287.964,68.400 288.239 C 68.400 288.514,68.850 289.273,69.400 289.927 C 69.950 290.581,70.400 291.245,70.400 291.403 C 70.400 291.562,71.255 292.706,72.300 293.946 C 75.297 297.503,75.354 297.664,75.665 303.600 C 76.058 311.088,76.627 313.847,78.513 317.400 C 80.181 320.543,83.142 324.483,83.617 324.190 C 83.797 324.078,84.075 324.198,84.234 324.455 C 84.415 324.748,84.350 324.816,84.062 324.638 C 83.249 324.136,83.560 324.771,85.176 326.912 C 87.545 330.052,89.252 332.000,89.636 332.000 C 89.824 332.000,91.289 332.643,92.889 333.429 C 94.573 334.256,96.694 334.955,97.920 335.087 C 100.043 335.316,103.600 338.322,103.600 339.887 C 103.600 340.886,107.260 344.000,108.434 344.000 C 109.050 344.000,109.664 344.180,109.800 344.400 C 109.936 344.620,110.577 344.800,111.224 344.800 C 111.871 344.800,112.400 344.889,112.400 344.997 C 112.400 345.267,110.815 347.146,109.606 348.310 C 108.171 349.690,108.101 355.403,109.500 356.893 C 109.995 357.420,110.400 358.035,110.400 358.260 C 110.400 358.485,111.050 359.503,111.845 360.523 C 113.119 362.159,113.258 362.557,113.021 363.889 C 112.873 364.720,112.665 367.200,112.559 369.400 C 112.453 371.600,112.149 373.833,111.883 374.363 C 109.937 378.241,111.969 384.467,115.812 386.400 L 117.800 387.400 151.831 387.400 C 189.770 387.400,187.593 387.558,189.420 384.672 C 191.541 381.322,191.527 381.465,190.825 370.200 C 190.565 366.020,190.193 358.730,189.999 354.000 C 189.806 349.270,189.529 344.250,189.385 342.845 C 189.224 341.274,189.290 339.965,189.556 339.445 C 189.793 338.980,190.061 335.990,190.150 332.800 C 190.240 329.610,190.601 325.200,190.953 323.000 C 191.305 320.800,191.699 317.830,191.829 316.400 C 191.958 314.970,192.320 313.121,192.632 312.292 C 193.038 311.213,193.200 308.915,193.200 304.216 C 193.200 300.268,193.360 297.549,193.600 297.400 C 193.820 297.264,194.000 296.749,194.000 296.256 C 194.000 295.750,194.845 294.411,195.942 293.180 C 197.010 291.981,198.009 290.604,198.162 290.120 C 198.460 289.180,199.935 288.476,200.350 289.076 C 200.487 289.276,201.229 290.330,201.997 291.419 C 202.766 292.509,204.044 294.660,204.837 296.200 C 205.631 297.740,206.608 299.630,207.008 300.400 C 207.408 301.170,207.885 302.113,208.068 302.495 C 208.500 303.397,208.499 308.527,208.067 309.020 C 205.948 311.441,206.583 319.468,209.345 325.170 C 210.471 327.497,211.117 334.197,211.468 347.200 C 211.548 350.170,211.784 352.960,211.992 353.400 C 212.201 353.840,212.453 355.460,212.554 357.000 C 212.807 360.859,213.504 365.695,213.993 366.981 C 214.217 367.570,214.400 368.591,214.400 369.249 C 214.400 369.907,214.850 371.252,215.400 372.237 C 215.950 373.222,216.400 374.323,216.400 374.683 C 216.400 377.314,221.446 383.872,224.604 385.344 C 225.482 385.754,226.552 386.273,226.982 386.499 C 227.535 386.789,227.808 386.777,227.914 386.458 C 228.021 386.137,228.288 386.126,228.841 386.422 C 229.267 386.650,229.793 386.728,230.008 386.595 C 230.224 386.462,230.400 386.543,230.400 386.776 C 230.400 387.009,230.895 387.221,231.500 387.247 L 232.600 387.295 231.400 387.551 C 230.297 387.787,235.813 387.776,259.800 387.492 C 268.494 387.389,268.626 387.375,270.779 386.294 C 271.977 385.692,273.176 385.200,273.443 385.200 C 274.491 385.200,277.840 381.205,278.554 379.103 C 278.947 377.946,279.406 376.640,279.574 376.200 C 280.607 373.502,280.845 372.028,281.070 366.955 C 281.339 360.879,281.107 359.573,278.946 354.994 C 278.426 353.891,278.000 352.442,278.000 351.774 C 278.000 351.106,277.827 350.387,277.615 350.175 C 276.789 349.349,276.608 335.859,277.403 334.361 C 279.919 329.617,281.195 326.913,281.197 326.324 C 281.199 325.952,281.380 325.536,281.600 325.400 C 281.820 325.264,282.000 324.634,282.000 324.000 C 282.000 323.366,282.159 322.749,282.353 322.629 C 282.893 322.295,283.287 318.488,283.556 311.000 L 283.800 304.200 285.300 304.076 C 287.109 303.926,287.118 304.010,285.600 306.935 C 283.644 310.705,283.998 320.800,286.086 320.800 C 286.259 320.800,286.400 321.055,286.400 321.366 C 286.400 324.030,299.998 327.868,301.400 325.600 C 301.536 325.380,301.981 325.200,302.389 325.200 C 303.495 325.200,307.849 322.869,310.800 320.696 C 314.757 317.783,315.700 317.200,316.455 317.200 C 319.406 317.200,326.000 310.030,326.000 306.821 C 326.000 306.454,326.264 305.804,326.587 305.376 C 326.910 304.949,327.180 304.116,327.187 303.524 C 327.194 302.932,327.380 302.336,327.600 302.200 C 327.820 302.064,328.000 301.445,328.000 300.825 C 328.000 300.205,328.270 299.051,328.600 298.262 C 328.930 297.472,329.200 296.367,329.200 295.807 C 329.200 295.247,329.358 294.477,329.551 294.095 C 330.137 292.935,330.755 290.700,331.015 288.800 C 331.151 287.810,331.404 286.640,331.576 286.200 C 331.749 285.760,332.201 284.410,332.579 283.200 C 332.958 281.990,333.408 280.640,333.579 280.200 C 334.977 276.609,335.204 275.172,335.202 269.924 C 335.201 266.702,335.365 264.345,335.600 264.200 C 335.820 264.064,336.000 263.553,336.000 263.065 C 336.000 262.577,336.241 261.823,336.536 261.389 C 338.771 258.101,338.685 207.069,336.437 202.870 C 336.197 202.420,336.000 201.421,336.000 200.650 C 336.000 199.878,335.820 199.136,335.600 199.000 C 335.380 198.864,335.200 198.296,335.200 197.737 C 335.200 196.682,334.608 195.137,332.964 191.903 C 332.434 190.860,332.000 189.762,332.000 189.464 C 332.000 188.743,330.895 186.488,329.814 185.000 C 326.624 180.613,324.263 174.195,325.415 173.043 C 327.398 171.059,328.237 159.561,326.632 156.345 C 326.285 155.648,326.000 154.562,326.000 153.933 C 326.000 153.304,325.844 152.477,325.654 152.095 C 325.005 150.794,324.315 148.604,324.024 146.921 C 323.675 144.908,323.419 144.546,319.955 141.173 L 317.256 138.546 317.128 129.492 C 317.035 122.928,316.862 120.301,316.500 119.939 C 316.225 119.665,316.000 119.114,316.000 118.716 C 316.000 117.098,311.550 109.122,309.216 106.558 C 308.547 105.823,308.000 105.069,308.000 104.883 C 308.000 104.298,300.977 97.057,299.190 95.800 C 298.252 95.140,296.565 93.783,295.442 92.785 C 294.319 91.787,292.665 90.479,291.768 89.878 C 290.870 89.277,289.621 88.248,288.993 87.592 C 288.364 86.937,287.693 86.400,287.502 86.400 C 287.310 86.400,286.337 85.635,285.341 84.700 C 284.344 83.765,282.941 82.714,282.224 82.364 C 278.644 80.618,278.193 79.746,279.957 77.982 C 281.907 76.032,283.849 73.101,284.585 71.000 C 284.970 69.900,285.433 68.640,285.615 68.200 C 286.518 66.014,287.078 59.100,286.455 57.837 C 286.228 57.377,285.955 56.190,285.850 55.200 C 285.505 51.965,284.572 48.362,283.546 46.305 C 283.356 45.923,283.200 45.417,283.200 45.180 C 283.200 44.663,281.537 40.904,280.201 38.400 C 279.672 37.410,278.801 35.694,278.265 34.586 C 277.728 33.479,277.000 32.332,276.645 32.037 C 276.290 31.743,276.000 31.282,276.000 31.013 C 276.000 30.744,275.625 30.185,275.167 29.770 C 274.709 29.355,274.102 28.473,273.818 27.808 C 273.534 27.144,272.559 25.827,271.651 24.883 C 270.743 23.939,270.000 23.002,270.000 22.800 C 270.000 22.599,268.065 20.461,265.700 18.049 C 261.409 13.673,261.395 13.664,259.078 13.383 C 250.604 12.358,247.702 17.188,249.743 28.921 C 250.095 30.944,250.461 33.140,250.557 33.800 C 250.778 35.323,251.565 38.357,252.009 39.400 C 253.220 42.241,253.402 47.974,252.354 50.238 C 250.848 53.487,250.348 53.463,246.681 49.972 C 245.316 48.672,243.999 47.607,243.754 47.605 C 243.509 47.602,241.979 46.553,240.354 45.273 C 238.729 43.994,237.088 42.773,236.707 42.561 C 235.882 42.103,232.228 39.203,229.825 37.100 C 228.882 36.275,227.930 35.600,227.710 35.600 C 227.489 35.600,225.979 34.560,224.354 33.288 C 220.350 30.155,217.612 28.400,216.726 28.400 C 216.321 28.400,215.677 28.244,215.295 28.054 C 212.284 26.552,208.113 25.873,201.800 25.856 C 193.437 25.833,190.206 26.676,182.000 31.023 C 181.230 31.431,180.058 32.043,179.397 32.383 C 178.735 32.722,176.809 34.035,175.118 35.300 C 173.426 36.565,171.881 37.600,171.683 37.600 C 171.486 37.600,170.981 37.987,170.562 38.459 C 169.699 39.432,164.189 43.600,163.766 43.600 C 163.614 43.600,162.708 44.320,161.754 45.200 C 160.799 46.080,159.750 46.800,159.423 46.800 C 159.096 46.800,158.635 47.160,158.400 47.600 C 158.165 48.040,157.704 48.400,157.377 48.400 C 157.050 48.400,156.001 49.120,155.046 50.000 C 151.981 52.826,151.200 52.144,151.200 46.644 C 151.200 42.501,151.706 38.890,152.651 36.292 C 152.953 35.462,153.200 34.103,153.200 33.272 C 153.200 32.440,153.363 31.589,153.563 31.380 C 154.004 30.919,154.378 27.924,154.651 22.662 C 155.040 15.145,151.678 12.321,143.703 13.464 M145.991 23.790 C 146.641 24.573,146.255 27.920,144.743 34.600 C 142.838 43.016,142.697 44.032,142.933 47.600 C 143.349 53.871,145.243 57.826,148.747 59.733 C 152.759 61.916,152.915 61.850,165.481 52.542 C 177.405 43.710,186.349 37.613,189.483 36.179 C 196.674 32.890,206.311 32.865,213.645 36.117 C 215.655 37.008,236.342 52.205,242.600 57.387 C 246.290 60.444,247.474 60.914,251.023 60.735 C 259.575 60.303,262.914 50.889,259.564 36.652 C 255.982 21.428,256.871 19.586,263.683 28.122 C 274.039 41.098,280.020 55.508,278.425 63.644 C 277.449 68.623,276.006 70.733,269.870 76.148 C 266.022 79.544,265.971 80.110,269.270 82.770 C 270.519 83.776,272.769 85.646,274.270 86.924 C 275.772 88.202,278.510 90.245,280.355 91.463 C 282.201 92.681,285.327 95.055,287.303 96.739 C 289.278 98.423,292.460 100.994,294.372 102.454 C 297.087 104.526,298.638 106.149,301.439 109.854 C 308.602 119.325,308.860 120.055,309.194 131.800 C 309.499 142.513,309.599 142.879,312.998 145.782 C 318.745 150.688,321.312 163.856,317.691 169.849 C 315.102 174.134,315.114 174.193,320.954 185.733 C 330.422 204.443,332.155 215.394,330.491 246.000 C 330.032 254.430,329.835 255.798,328.388 260.600 C 327.824 262.471,327.438 265.257,327.226 269.000 C 326.969 273.511,326.699 275.183,325.835 277.600 C 325.246 279.250,323.704 284.858,322.408 290.063 C 318.508 305.735,317.686 307.494,313.271 309.602 C 311.802 310.304,308.955 312.016,306.945 313.408 C 299.571 318.512,295.692 319.277,293.206 316.117 C 291.308 313.703,292.055 311.333,296.856 304.539 C 300.886 298.835,301.334 297.610,301.000 293.200 C 300.256 283.362,296.811 282.314,291.653 290.356 C 285.533 299.895,280.808 297.463,281.332 285.044 C 281.932 270.846,284.048 264.227,289.391 259.843 C 294.139 255.947,292.605 245.604,286.049 237.310 C 277.602 226.624,274.057 219.186,273.221 210.400 C 272.981 207.870,272.606 204.090,272.388 202.000 C 272.170 199.910,271.993 197.480,271.994 196.600 C 271.997 193.140,267.019 185.568,263.567 183.783 C 259.745 181.807,253.655 190.636,251.825 200.806 C 250.953 205.651,251.172 206.265,254.527 208.384 C 258.230 210.722,260.070 213.953,271.744 238.611 C 274.972 245.430,274.980 244.684,271.644 248.143 C 266.523 253.454,265.968 255.064,267.616 259.837 C 269.552 265.447,273.468 284.391,274.388 292.600 C 274.634 294.800,275.008 298.040,275.218 299.800 C 276.610 311.442,275.166 321.588,271.128 328.538 L 269.000 332.200 268.871 338.369 C 268.685 347.263,269.485 352.245,272.361 360.090 C 274.466 365.833,272.358 375.769,268.469 378.434 C 265.467 380.491,233.955 380.462,229.244 378.398 C 223.776 376.002,220.634 365.468,219.578 346.000 C 218.608 328.092,218.538 327.569,216.110 320.049 L 214.641 315.498 215.377 312.849 C 217.458 305.357,217.147 302.987,212.981 294.600 C 210.390 289.385,209.247 287.701,203.506 280.640 C 198.848 274.910,198.485 274.903,194.769 280.478 C 193.404 282.525,191.158 285.730,189.779 287.600 C 186.021 292.695,185.200 295.448,185.200 302.949 C 185.200 307.282,184.422 314.078,183.548 317.369 C 181.864 323.716,181.111 341.478,181.987 354.200 C 182.962 368.376,182.973 378.227,182.015 379.185 C 181.214 379.986,180.807 380.000,158.900 379.999 C 123.570 379.997,120.248 379.784,120.368 377.526 C 120.395 377.017,120.464 374.710,120.522 372.400 C 120.579 370.090,120.867 366.708,121.161 364.884 C 121.782 361.038,121.417 359.571,118.987 356.153 C 117.023 353.392,117.127 352.290,119.613 349.501 C 125.429 342.975,124.586 333.518,117.726 328.341 C 113.554 325.192,113.358 323.882,115.859 315.909 C 116.730 313.133,117.011 312.693,118.621 311.586 C 121.127 309.861,121.305 309.468,123.202 301.467 C 125.091 293.504,125.093 292.550,123.232 289.980 C 120.114 285.677,125.020 272.575,131.313 268.400 C 134.601 266.218,135.378 265.095,136.138 261.427 C 138.129 251.821,138.053 247.010,135.839 242.411 C 134.033 238.661,133.988 236.832,135.588 232.297 C 139.239 221.953,143.573 215.286,147.887 213.379 C 151.124 211.947,151.484 209.875,149.989 201.269 C 148.776 194.285,147.432 190.575,143.787 184.153 C 139.054 175.813,138.020 175.807,133.875 184.091 C 130.792 190.252,130.496 192.012,131.013 201.103 C 131.563 210.763,129.716 220.610,126.673 224.247 C 126.142 224.881,125.245 226.300,124.679 227.400 C 123.660 229.382,122.307 231.315,118.764 235.850 C 110.722 246.144,109.417 254.537,114.955 260.355 C 116.549 262.030,118.549 264.660,119.399 266.200 C 120.250 267.740,121.363 269.627,121.873 270.393 C 123.180 272.356,123.052 273.449,120.920 278.524 C 118.409 284.503,118.261 287.991,120.356 291.869 L 121.689 294.337 120.824 298.469 C 119.276 305.861,118.996 306.564,116.845 308.472 C 113.373 311.549,111.387 317.734,111.088 326.400 C 110.814 334.333,110.583 334.558,106.716 330.672 C 104.209 328.154,102.251 327.208,99.523 327.196 C 96.580 327.184,93.824 324.920,89.299 318.800 C 84.681 312.554,83.610 309.632,83.586 303.216 C 83.564 297.326,82.562 293.900,79.839 290.400 C 76.731 286.406,70.782 277.208,70.547 276.035 C 70.285 274.725,70.668 274.282,73.800 272.279 C 78.018 269.581,78.224 265.928,74.819 254.220 C 71.867 244.070,72.049 213.690,75.108 206.000 C 75.764 204.350,76.498 202.071,76.739 200.935 C 77.424 197.702,78.559 195.057,80.701 191.700 C 87.130 181.622,92.386 155.423,92.405 133.355 C 92.413 124.370,93.884 118.292,97.307 113.106 C 100.473 108.307,110.059 99.631,118.400 94.014 C 124.247 90.077,135.600 79.913,135.600 78.616 C 135.600 78.153,134.145 76.434,132.046 74.416 C 125.290 67.921,123.965 63.559,126.052 54.672 C 128.893 42.570,143.195 20.420,145.991 23.790 M139.856 194.300 C 142.768 201.394,143.200 206.105,141.081 207.640 C 139.097 209.077,139.350 209.927,139.075 200.900 C 138.843 193.287,138.976 192.156,139.856 194.300 M264.227 201.200 L 264.513 205.800 262.727 204.157 C 261.745 203.253,260.691 202.430,260.384 202.328 C 259.673 202.091,259.803 199.670,260.608 198.125 C 260.931 197.506,261.196 196.721,261.198 196.380 C 261.203 195.069,262.115 194.732,263.056 195.695 C 263.822 196.479,263.979 197.216,264.227 201.200 M127.104 242.800 C 127.471 244.010,128.087 245.469,128.472 246.042 C 129.583 247.695,129.711 249.855,129.001 254.961 C 128.192 260.777,126.961 263.042,125.795 260.862 C 125.039 259.450,122.988 256.694,121.271 254.781 C 118.885 252.123,119.408 248.945,123.010 244.223 C 123.554 243.509,124.000 242.751,124.000 242.539 C 124.000 241.828,126.169 239.499,126.306 240.064 C 126.377 240.359,126.736 241.590,127.104 242.800 M283.534 250.004 C 283.607 250.552,283.832 251.171,284.034 251.380 C 284.928 252.308,284.235 253.929,282.694 254.512 C 282.306 254.659,281.826 255.205,281.629 255.724 C 281.431 256.244,280.757 257.193,280.131 257.834 C 279.505 258.475,278.634 259.763,278.196 260.695 C 277.204 262.808,277.049 262.808,276.425 260.700 C 276.148 259.765,275.760 258.687,275.561 258.305 C 274.847 256.931,275.253 256.189,278.700 252.570 C 282.291 248.800,283.300 248.265,283.534 250.004 M342.290 311.843 C 342.141 311.992,340.350 312.248,338.309 312.412 C 331.044 312.994,315.600 318.148,315.600 319.991 C 315.600 320.165,315.242 320.400,314.805 320.515 C 314.367 320.629,313.828 321.145,313.606 321.661 C 313.384 322.178,313.049 322.870,312.863 323.200 C 312.677 323.530,312.316 324.203,312.062 324.695 C 311.249 326.269,311.421 381.333,312.247 383.757 C 313.330 386.934,319.833 392.000,322.830 392.000 C 323.228 392.000,323.652 392.160,323.773 392.356 C 323.894 392.552,325.299 393.021,326.896 393.400 C 328.493 393.778,330.571 394.337,331.514 394.643 C 332.457 394.950,334.291 395.200,335.590 395.200 C 336.890 395.200,338.064 395.380,338.200 395.600 C 338.359 395.857,344.796 396.000,356.200 396.000 C 367.604 396.000,374.041 395.857,374.200 395.600 C 374.336 395.380,375.510 395.200,376.810 395.200 C 378.109 395.200,379.943 394.950,380.886 394.643 C 381.829 394.337,383.907 393.778,385.504 393.400 C 387.101 393.021,388.506 392.552,388.627 392.356 C 388.748 392.160,389.264 392.000,389.773 392.000 C 390.707 392.000,394.149 390.276,395.129 389.317 C 395.419 389.033,395.818 388.800,396.015 388.800 C 396.211 388.800,397.188 387.948,398.186 386.907 L 400.000 385.014 400.000 354.194 L 400.000 323.375 397.700 321.148 C 396.435 319.924,394.648 318.544,393.729 318.083 C 392.810 317.621,391.730 317.075,391.329 316.868 C 389.130 315.737,385.141 314.400,383.967 314.400 C 383.413 314.400,382.789 314.236,382.580 314.035 C 382.177 313.648,378.936 313.004,374.000 312.332 C 370.557 311.863,342.700 311.433,342.290 311.843 M373.277 321.170 C 389.632 323.685,395.648 328.068,387.976 331.880 C 374.788 338.433,337.354 338.449,324.414 331.907 C 315.381 327.340,323.835 322.935,346.800 320.242 C 350.886 319.763,368.031 320.364,373.277 321.170 M325.040 336.946 C 341.503 342.545,369.832 342.638,386.634 337.148 C 391.964 335.406,392.690 336.073,392.333 342.390 C 392.083 346.803,390.473 348.370,384.085 350.417 C 364.054 356.833,324.337 353.890,320.724 345.721 C 319.622 343.230,319.782 337.442,320.976 336.568 C 321.959 335.849,321.762 335.831,325.040 336.946 M326.337 354.392 C 343.104 359.567,371.272 359.478,386.557 354.202 C 391.682 352.433,392.529 353.127,392.295 358.902 C 392.121 363.212,391.576 364.095,387.984 365.894 C 372.611 373.593,327.333 371.954,321.038 363.471 C 319.892 361.928,319.578 355.704,320.569 354.191 C 321.390 352.938,321.658 352.948,326.337 354.392 M330.182 372.452 C 345.879 376.661,371.273 376.092,386.684 371.186 C 388.711 370.541,390.621 370.110,390.930 370.229 C 392.596 370.868,392.993 376.923,391.563 379.876 C 387.603 388.056,347.856 390.889,328.015 384.405 C 321.313 382.215,320.066 380.798,320.023 375.326 C 319.985 370.492,320.692 369.671,324.000 370.711 C 324.990 371.022,327.772 371.806,330.182 372.452 " stroke="none" fill="#040404" fill-rule="evenodd"></path>
</g></svg>