<svg id="svg" version="1.1" xmlns="http://www.w3.org/2000/svg" xmlns:xlink="http://www.w3.org/1999/xlink" width="400" height="400" viewBox="0, 0, 400,400"><g id="svgg"><path id="path0" d="M140.390 21.843 C 121.422 42.330,116.249 63.822,127.481 75.473 L 130.573 78.681 125.638 83.173 C 122.924 85.644,118.662 89.060,116.168 90.766 C 93.965 105.946,89.438 113.461,88.248 137.109 C 86.976 162.395,83.199 180.598,77.387 189.453 C 69.322 201.740,65.730 238.758,70.982 255.469 C 74.096 265.377,73.808 267.931,69.336 270.078 C 63.411 272.923,64.705 276.583,78.012 294.619 C 78.606 295.424,79.336 299.430,79.675 303.741 C 80.359 312.446,81.082 314.235,87.271 322.531 C 91.704 328.473,95.735 331.197,100.150 331.233 C 101.789 331.246,103.048 332.283,105.859 335.938 C 111.105 342.755,116.615 341.562,115.369 333.879 C 114.922 331.128,114.944 331.099,116.448 332.459 C 120.674 336.284,120.290 343.491,115.618 348.054 C 111.809 351.774,111.751 353.067,115.186 357.747 C 117.730 361.212,117.831 361.592,117.093 364.876 C 116.665 366.784,116.405 369.601,116.515 371.136 C 116.626 372.670,116.266 375.015,115.715 376.345 C 112.876 383.200,114.887 383.594,152.767 383.594 L 185.120 383.594 186.241 381.836 C 187.182 380.360,187.238 377.950,186.591 366.797 C 185.427 346.738,185.613 330.520,187.115 321.094 C 187.835 316.582,188.687 308.779,189.010 303.753 C 189.382 297.963,190.000 294.067,190.697 293.119 C 191.302 292.296,193.408 289.293,195.377 286.444 L 198.958 281.265 202.897 286.140 C 210.420 295.451,213.941 304.331,212.150 309.475 C 210.534 314.115,210.638 317.158,212.580 322.041 C 213.854 325.246,214.461 329.588,215.287 341.406 C 217.199 368.740,219.849 378.034,226.819 381.848 C 230.849 384.052,264.907 384.330,269.727 382.198 C 275.636 379.584,279.079 367.599,276.211 359.628 C 272.482 349.267,271.519 335.041,274.284 331.159 C 278.007 325.929,279.187 320.631,279.244 308.883 C 279.296 298.056,279.327 297.864,280.838 298.922 C 284.979 301.819,290.557 299.500,294.535 293.227 L 296.671 289.859 297.133 293.172 C 297.543 296.109,297.267 296.952,294.696 300.605 C 286.662 312.024,286.020 317.514,292.340 320.782 C 296.568 322.968,301.497 321.933,307.911 317.510 C 310.950 315.415,314.531 313.343,315.868 312.905 C 319.789 311.623,322.305 306.531,325.742 292.925 C 327.418 286.289,329.343 279.321,330.020 277.441 C 330.696 275.561,331.250 271.826,331.250 269.141 C 331.250 266.337,331.828 262.804,332.608 260.840 C 333.795 257.850,333.967 254.338,333.975 232.813 C 333.986 203.621,333.748 202.359,324.946 184.959 L 319.511 174.215 321.550 171.135 C 325.528 165.124,322.849 149.952,316.765 144.036 L 313.443 140.806 313.141 130.755 C 312.661 114.764,304.966 103.807,283.926 89.152 C 282.454 88.127,281.250 86.985,281.250 86.613 C 281.250 86.241,280.772 85.938,280.188 85.938 C 279.604 85.938,277.547 84.547,275.617 82.848 L 272.108 79.759 276.250 75.482 C 285.991 65.426,283.994 49.466,270.654 30.754 C 255.968 10.155,249.846 12.591,255.524 36.774 C 259.403 53.298,254.064 61.836,244.701 54.082 C 207.428 23.217,199.705 22.475,166.978 46.616 C 152.068 57.614,151.604 57.849,149.398 55.482 C 146.289 52.144,146.146 46.828,148.822 33.967 C 152.560 16.000,149.660 11.830,140.390 21.843 M144.955 33.115 C 141.611 49.632,142.709 57.226,148.846 60.022 C 152.579 61.723,154.225 61.006,164.854 53.052 C 200.573 26.318,203.575 26.448,241.185 56.335 C 255.129 67.415,264.388 57.246,259.499 36.220 C 255.484 18.958,255.941 18.367,264.661 29.534 C 281.198 50.712,282.760 65.842,269.487 76.270 L 264.829 79.930 267.375 81.467 C 268.776 82.313,271.376 84.338,273.153 85.967 C 274.930 87.597,277.871 89.869,279.688 91.016 C 285.876 94.922,298.037 105.499,301.400 109.899 C 308.613 119.337,308.902 120.166,309.361 132.729 C 309.691 141.758,310.005 144.090,310.934 144.400 C 317.435 146.567,321.760 162.856,317.682 169.815 C 314.949 174.479,314.851 174.009,321.039 186.002 C 327.936 199.373,329.545 205.121,330.422 219.531 C 331.281 233.657,330.298 255.317,328.581 260.059 C 327.901 261.939,327.344 265.674,327.344 268.359 C 327.344 271.044,326.794 274.779,326.122 276.660 C 325.450 278.540,323.679 284.943,322.188 290.889 C 318.803 304.379,317.084 308.205,313.914 309.310 C 312.610 309.764,309.866 311.341,307.817 312.812 C 294.041 322.710,287.574 318.095,296.662 304.852 C 301.427 297.909,301.725 296.672,300.501 288.936 C 299.526 282.774,296.248 283.223,291.835 290.123 C 284.370 301.791,280.198 297.481,281.775 279.730 C 282.735 268.937,284.330 264.786,289.416 259.842 C 293.834 255.549,293.175 247.842,287.700 239.775 C 273.635 219.049,273.925 219.744,272.576 203.509 L 271.633 192.149 266.899 186.983 L 262.165 181.817 259.162 185.244 C 255.063 189.921,253.211 193.714,251.857 200.207 C 250.616 206.161,250.689 206.369,254.758 208.467 C 257.106 209.678,258.462 211.945,266.188 227.567 L 274.955 245.292 271.055 248.940 C 266.255 253.430,265.837 254.956,267.829 260.713 C 275.841 283.864,277.647 316.766,271.509 327.742 C 267.574 334.778,267.848 350.091,272.075 359.375 C 275.000 365.800,272.270 377.117,267.342 379.000 C 264.134 380.225,230.583 379.584,228.246 378.253 C 223.687 375.656,220.744 364.051,219.529 343.878 C 218.594 328.353,218.242 325.812,216.316 320.703 C 214.521 315.938,214.503 315.006,216.116 310.077 C 218.151 303.854,213.886 292.885,205.739 283.388 C 203.808 281.138,201.652 278.330,200.946 277.148 C 199.152 274.144,199.093 274.183,193.598 282.067 C 185.488 293.703,185.874 292.720,185.097 303.704 C 184.709 309.186,184.048 315.078,183.629 316.797 C 181.904 323.872,181.074 342.613,181.952 354.650 C 182.425 361.133,182.813 369.423,182.813 373.072 L 182.813 379.705 151.367 379.501 C 120.408 379.300,119.926 379.273,120.194 377.734 C 120.343 376.875,120.532 374.238,120.613 371.875 C 120.695 369.512,121.040 365.988,121.380 364.045 C 121.950 360.794,121.780 360.194,119.255 356.523 L 116.512 352.535 118.873 350.291 C 125.686 343.814,124.783 332.853,117.012 327.711 C 115.136 326.469,114.063 325.154,114.063 324.097 C 114.062 321.176,117.218 311.719,118.197 311.707 C 120.430 311.678,121.326 309.878,123.372 301.309 L 125.540 292.233 123.707 290.511 C 121.274 288.225,121.388 285.771,124.252 278.826 C 127.393 271.208,128.368 269.838,131.941 268.015 C 136.931 265.469,139.607 248.516,135.952 242.602 C 131.974 236.165,141.449 214.161,148.639 213.139 C 153.175 212.495,149.858 194.270,143.201 183.250 C 138.404 175.311,138.432 175.311,134.377 183.199 L 130.950 189.864 130.820 201.768 C 130.680 214.536,129.604 221.178,127.303 223.478 C 126.512 224.270,125.270 226.066,124.544 227.470 C 123.818 228.874,121.504 232.267,119.401 235.011 C 111.158 245.766,109.199 255.102,114.220 259.702 C 115.719 261.075,117.934 263.936,119.143 266.060 C 120.352 268.184,121.878 270.359,122.533 270.894 C 123.584 271.752,123.431 272.532,121.235 277.535 C 118.314 284.188,118.016 288.700,120.307 291.612 C 122.467 294.359,119.726 307.480,116.756 308.609 C 113.299 309.924,110.867 318.706,111.147 328.870 C 111.359 336.582,111.158 337.063,109.147 333.658 C 107.220 330.396,103.324 327.344,101.087 327.344 C 97.151 327.344,94.076 325.241,90.098 319.829 C 84.512 312.231,84.258 311.573,83.586 303.025 C 83.169 297.720,82.536 294.654,81.531 293.068 C 80.732 291.808,77.705 287.252,74.805 282.944 C 68.549 273.652,68.726 274.648,72.999 272.758 C 78.224 270.447,78.587 266.619,74.750 254.297 C 70.379 240.260,72.832 206.629,79.080 194.922 C 83.454 186.727,85.173 182.757,86.632 177.480 C 89.358 167.620,91.375 153.277,92.145 138.281 C 93.315 115.483,96.239 110.170,115.156 96.479 C 118.120 94.334,124.195 89.465,128.655 85.661 L 136.765 78.743 131.727 73.942 C 120.536 63.278,124.620 45.542,143.075 24.659 C 147.364 19.806,147.513 20.479,144.955 33.115 M141.850 189.168 C 144.535 194.500,146.833 202.743,146.861 207.149 C 146.872 208.696,146.182 209.630,144.141 210.834 C 135.574 215.889,128.196 236.232,132.132 243.947 C 134.666 248.914,133.350 262.381,130.124 264.495 C 126.437 266.910,123.782 266.780,122.684 264.129 C 122.132 262.797,120.318 260.303,118.653 258.587 C 113.662 253.445,114.906 247.135,122.962 236.719 C 133.465 223.139,135.568 216.583,135.006 199.170 C 134.795 192.602,134.994 191.209,136.657 187.646 C 138.982 182.665,138.505 182.525,141.850 189.168 M265.689 191.602 C 267.157 193.428,268.256 195.229,268.132 195.603 C 267.639 197.086,269.662 215.476,270.734 219.262 C 271.398 221.604,274.245 226.780,277.539 231.634 C 288.655 248.012,290.696 254.037,286.272 257.412 C 282.294 260.446,279.110 267.807,278.028 276.477 L 277.111 283.812 274.882 272.736 C 273.656 266.645,272.131 260.411,271.493 258.885 C 270.110 255.574,270.452 254.785,275.331 250.033 C 277.297 248.117,278.906 245.904,278.906 245.114 C 278.906 241.698,260.929 207.820,258.167 206.032 C 255.126 204.062,254.928 202.885,256.660 197.054 C 257.764 193.335,261.093 188.281,262.439 188.281 C 262.758 188.281,264.221 189.775,265.689 191.602 M337.921 316.494 C 328.883 317.811,320.442 320.964,317.155 324.251 C 315.034 326.372,314.754 380.440,316.849 383.430 C 325.314 395.517,389.551 395.038,396.079 382.839 C 396.576 381.911,396.875 370.978,396.875 353.713 L 396.875 326.074 394.727 324.063 C 387.239 317.058,359.460 313.356,337.921 316.494 M371.875 321.504 C 386.196 323.533,394.003 327.021,390.772 329.945 C 381.490 338.345,331.014 338.349,321.734 329.951 C 314.993 323.850,348.544 318.197,371.875 321.504 M328.906 338.522 C 345.849 343.322,378.521 342.077,390.074 336.192 L 392.257 335.080 392.027 340.742 C 391.805 346.206,391.709 346.454,389.262 347.881 C 377.435 354.773,338.333 355.219,325.000 348.613 L 320.703 346.484 320.473 340.782 L 320.243 335.080 322.426 336.192 C 323.627 336.804,326.543 337.852,328.906 338.522 M333.684 356.759 C 348.236 359.948,376.292 358.534,388.196 354.011 L 392.253 352.469 392.025 358.070 L 391.797 363.672 388.235 365.441 C 381.161 368.954,374.401 369.895,356.250 369.895 C 338.099 369.895,331.339 368.954,324.265 365.441 L 320.703 363.672 320.474 358.021 L 320.245 352.370 323.689 353.847 C 325.583 354.659,330.081 355.969,333.684 356.759 M339.260 374.615 C 357.339 377.185,378.358 375.283,390.820 369.949 C 392.686 369.151,392.862 378.901,391.016 380.747 C 383.286 388.477,338.412 389.682,324.219 382.541 L 320.703 380.773 320.476 375.279 L 320.249 369.785 325.752 371.631 C 328.778 372.646,334.857 373.989,339.260 374.615 " stroke="none" fill="#000000" fill-rule="evenodd"></path></g></svg>